# xmcd CD database file
# Copyright (C) 1993-1998 Ti Kan
# 
# Track frame offsets:
#     151
#     15880
#     34875
#     51454
#     74381
#     93710
#     110879
#     128722
#     147493
#     170862
#     194065
#     213366
#     233571
#     249238
#     269941
#     288848
#     302799
#     319182
# 
# Disc length: 4417 seconds
# 
# Revision: 1
# Processed by: cddbd v1.4b41PL1 Copyright (c) Steve Scherf et al.
# Submitted via: DiscPlay 4.0.4
# 
DISCID=1e113f12
DTITLE=Various Artist - Lady In Red (Volume 6)
DYEAR=1900
DGENRE=
TTITLE0=You Showed Me
TTITLE1=How Come How Long
TTITLE2=As Long As You Love Me
TTITLE3=I'll Missing You
TTITLE4=Aicha
TTITLE5=Don't You Love Me
TTITLE6=L'aurora
TTITLE7=Candle In The Wind 1997
TTITLE8=Let's Talk About Love
TTITLE9=Viva Forever
TTITLE10=I Die
TTITLE11=When I Die
TTITLE12=Kaleidoscope
TTITLE13=Forever Love
TTITLE14=When I Need You
TTITLE15=Day Dream
TTITLE16=Romeo and Juliet
TTITLE17=Will You Love Me Tomorrow
EXTD=Created By Dato
EXTT0=Lighting Seeds
EXTT1=Baby Face
EXTT2=Back Street Boys
EXTT3=Buff Daddy
EXTT4=Khaled
EXTT5=E-ternel
EXTT6=Eros Ramazzotti
EXTT7=Elton John
EXTT8=Celine Dion
EXTT9=Spice Girls
EXTT10=Tony Braxton
EXTT11=No Mercy
EXTT12=Jam and Spoon Feat. Plavka
EXTT13=Gary Barlow
EXTT14=Celine Dion
EXTT15=David D'or
EXTT16=Poetry 'N' Motion
EXTT17=Shirelles
PLAYORDER=
